<svg xmlns="http://www.w3.org/2000/svg" viewBox="0 0 612 792" xmlns:xlink="http://www.w3.org/1999/xlink" style="enable-background:new 0 0 612 792">
 <defs>
  <linearGradient id="SVGID_1_" gradientUnits="userSpaceOnUse" x1="100" y1="289" x2="512" y2="701">
   <stop style="stop-color:#ffffff"/>
   <stop offset="0" style="stop-color:#f5ebec"/>
   <stop offset=".1" style="stop-color:#e0c2c5"/>
   <stop offset=".1" style="stop-color:#cd9ca1"/>
   <stop offset=".2" style="stop-color:#bd7c83"/>
   <stop offset=".2" style="stop-color:#af6069"/>
   <stop offset=".3" style="stop-color:#a44a54"/>
   <stop offset=".4" style="stop-color:#9b3944"/>
   <stop offset=".5" style="stop-color:#952e39"/>
   <stop offset=".6" style="stop-color:#922733"/>
   <stop offset="1" style="stop-color:#912531"/>
  </linearGradient>
  <linearGradient id="SVGID_2_" gradientUnits="userSpaceOnUse" x1="149" x2="463" xlink:href="#SVGID_1_"/>
  <linearGradient id="SVGID_3_" gradientUnits="userSpaceOnUse" x1="422" x2="458" xlink:href="#SVGID_1_"/>
  <linearGradient id="SVGID_4_" gradientUnits="userSpaceOnUse" x1="54" x2="153" xlink:href="#SVGID_1_"/>
  <linearGradient id="SVGID_5_" gradientUnits="userSpaceOnUse" x1="28" x2="61" xlink:href="#SVGID_1_"/>
  <linearGradient id="SVGID_6_" gradientUnits="userSpaceOnUse" x1="19.8" x2="41.8" xlink:href="#SVGID_1_"/>
  <linearGradient id="SVGID_7_" gradientUnits="userSpaceOnUse" x1="40.8" x2="51.8" xlink:href="#SVGID_1_"/>
  <linearGradient id="SVGID_8_" gradientUnits="userSpaceOnUse" x1="47" x2="53.9" xlink:href="#SVGID_1_"/>
  <linearGradient id="SVGID_9_" gradientUnits="userSpaceOnUse" x1="73" x2="78" xlink:href="#SVGID_1_"/>
  <linearGradient id="SVGID_10_" gradientUnits="userSpaceOnUse" x1="57" x2="62" xlink:href="#SVGID_1_"/>
  <linearGradient id="SVGID_11_" gradientUnits="userSpaceOnUse" x1="71" x2="75" xlink:href="#SVGID_1_"/>
  <linearGradient id="SVGID_12_" gradientUnits="userSpaceOnUse" x1="91" x2="95" xlink:href="#SVGID_1_"/>
  <linearGradient id="SVGID_13_" gradientUnits="userSpaceOnUse" x1="54" x2="57.7" xlink:href="#SVGID_1_"/>
  <linearGradient id="SVGID_14_" gradientUnits="userSpaceOnUse" x1="50.8" x2="53" xlink:href="#SVGID_1_"/>
  <linearGradient id="SVGID_15_" gradientUnits="userSpaceOnUse" x1="54.9" x2="57" xlink:href="#SVGID_1_"/>
 </defs>
 <path d="m306 204c-161 0-291 130-291 291s130 291 291 291 291-130 291-291-130-291-291-291m.4 502c-116 0-210-94-210-210s94-210 211-210 211 94 211 211-94 211-210 211" style="fill:url(#SVGID_1_)"/>
 <path d="m172 465c-2-1.4-4.1-2.7-5.9-4.3-.9-.8-1.4-2.2-1.6-3.4-.3-1.8-1-3.2-2.2-4.4-3.3-3.4-6.5-7-9.9-10.3-1.7-1.7-2.7-3.3-2.2-5.8.4-2.2.2-4.4-.8-6.4-.7-1.5-.5-2.9.4-4.4 1.5-2.4 2.8-4.9 4.5-8 .4.8.6 1.2.8 1.6.4-.2.6-.3.8-.5 1.7-2.3.5-4.9.5-7.4.1-3-.3-5.9.7-8.8.3-.8-.3-1.9-.6-2.8-.2-.6-.7-1.1-1.1-1.6-1.9-3-1.8-2.9.4-5.6 2.2-2.7 4.1-5.6 6.2-8.4.8-1.1 1.7-2.2 2.8-3.6.2 2 .4 3.3.6 5.6.7-1.3 1.2-1.9 1.3-2.5.1-.9.1-1.8 0-2.7-.3-3.7-.3-3.7 3.5-4.7-.1-4.1 2.9-6.8 5.2-9.8.4-.5 1.6-.5 2.6-.7.2 1.7.4 3 .7 4.7.5-5.6.7-5.3 5.4-7.8 4.4-2.4 8.6-5.3 9.8-10.8.2-.9.5-1.7.7-2.6.6-2.7 1.7-5.2 4.6-6.3.6-.2 1-.8 1.6-1.1 4.6-2.3 8.3-5.6 11.2-9.9.6-.9 1.5-1.7 2-2.2 3.5 1.3 6.7 2.3 9.8 3.6 2.1.9 3.9.6 5.9-.5 1.6-1 3.3-2.3 5.4-.8 1.2-2.9 3.3-3.2 5.8-3.4 9.8-.6 19.6-1.4 29-2.2 2.6-.2 5.1-.1 7.5 1.3 1.1.7 1.8 1.4 1.8 2.7 0 .6.2 1.3.3 1.9.5 2.5.2 4.6-2.2 6-.6.3-1.1.7-1.5 1.1.6 2.1 1.8 2.8 3.4 3.3 4.9 1.6 9.8 3.3 14.7 4.9 2 .6 3.4 1.6 3.9 3.8.2.8.8 1.8 1.5 2 5 1.7 10 3.2 15.2 4.7 1.5-2.3 3.1-4.1 2.8-7.1-.3-2.5 4-5.5 6.6-4.9 7.4 1.7 14.8 3.7 22 5.4 3.8.9 7.6 2.6 11.7 2 .5-.1 1.1.6 1.7.9 1-3.1 3.8-3.4 6.3-4 3-.7 5.1 1.3 7.6 2.6 1-.7 2.1-1.4 3.4-2.4 1.6 2.9 3.2 5.7 4.1 8.8.4 1.1-.1 2.5-.4 3.8-.5 2.3-1.2 4.5-1.8 6.7-.5 1.8-.3 3.5.9 5.1 1.8 2.7 3.4 5.5 5 8.3.8 1.5 1.9 2.9 2.1 4.5.4 2.4 1.9 3.6 3.7 4.6 2.1 1.1 3.3 2.5 3.9 4.9.8 3.3 2 6.4 3.2 9.5.5 1.3 1.3 2.6 2.3 3.5 3.7 3.4 6.4 7.4 8.1 12 1 2.8 2.9 4.8 5.3 6.5 3.5 2.5 6.8 5.2 10.4 7.5 2.7 1.8 4.4 3.6 2.6 7 2.2 2.6 5 4.2 7.5 6.2 1.3 1 2.5.1 3.7-.2 7.5-2.4 15-5 22.5-7.4.9-.3 1.9-.5 3.4-.9-.3 4-.7 7.7-1 11.3-.4 4.8-3.2 8.7-4.6 13-2 6.5-6.5 11.3-10.7 16.4-6.5 7.9-14 14.8-21.4 22-2.1 2.1-4.4 4-6.4 6.2-1.4 1.5-2.6 3.2-3.6 5-2.6 4.7-5.1 9.6-7.6 14.4 1.1 1.6 2.3 3.4 3.4 5.1-.3.7-.4 1.2-.6 1.7-1.3 2.2-1.1 4.3.2 6.6 1.5 2.7 2.6 5.6 3.8 8.4.2.6 0 1.4 0 2.8-.8-.9-1.2-1.3-1.6-1.8-.2.1-.6.3-.6.4 0 .6-.1 1.3.1 1.9 1.5 3.6.7 7.4 1.5 11 .2.9-.3 2-.5 3-.2.9-.6 1.7-.9 2.6-.4 1.2 1 1.1 1.5 2-2.6 2.9-5.2 6-7.9 8.9-.7.8-1.9 1.3-2.9 1.7-2.6.9-5.2 1.7-7.8 2.3-1.4.3-2.3 1-3.1 2.1-1.3 1.8-2.4 3.7-3.9 5.3-2.3 2.3-2.6 4.9-2 7.9.4 2.4.8 4.8 1.1 7.3.2 1.3 0 1.4-2 2.3.1 1.7.3 3.5.4 5.6-.9.5-1.8 1.1-2.8 1.6-2.4 1.2-4.9 2.3-7.3 3.4-1.2.6-2.1 1.4-2.2 2.9-.3 2.6-.9 5.1-1.2 7.7-.2 1.7-.8 2.9-2 4-4.9 4.6-9.8 9.2-14.7 13.8-2.9 2.7-6 5.3-8.8 8.2-1.6 1.6-3.3 2.3-5.5 2.1-4-.2-8-.4-12-.5-.5 0-1 .3-1.5.4-3.9.9-7.8 1.8-11.9 2.7-2.1-1.7-4.8-3.1-5.8-6.2-.5-1.5-1-2.9.1-4.4 1-1.3.7-2.6-.1-3.9-3.8-6-6.9-12.4-11.4-18-2.7-3.3-3.5-7.4-4.1-11.4-.5-3.4-1.1-6.9-1.7-10.3-.4-2.6-1.5-4.9-2.6-7.2-2.2-4.6-5.6-8.7-7-13.8-.3-1-1.3-1.8-2.2-3.1 1-.2 1.7-.3 2.6-.4-.4-.8-.7-1.6-1.1-2.3-1.1-2.1-1.9-4.2-.5-6.6.5-.8.5-2 .7-2.9.9-3.4 1.7-6.8 2.7-10 .3-.9 1.5-1.7 2.4-2.3 1.1-.8 1.7-1.7 2-3.1.8-3.3.5-6.3-.7-9.5-.8-1.9-1.2-4-1.2-6-.1-2.6-1.5-4.6-2.3-6.9-3.7-10.4-10.6-18.9-16.6-27.9-.6-1-1.3-1.9-2-3 .6-1.3 1.1-2.6 1.8-3.8 1-1.9 2.1-3.7 1.4-6.2-.4-1.3.5-3 1-4.5.4-1.4.9-2.7 1.3-4.1-2-2.2-3.9-4.3-5.8-6.4-.9-1-2-1.2-3.2-1-2.4.3-4.9.7-7.3 1-.9.1-1.8.3-2.9.5-1.6-2.8-3.3-5.5-4.9-8.3-4.7-1.3-9.5-.8-14.3-1.1-.7 0-1.5.3-2.1.7-3.3 2.4-7 3.7-10.9 5-.4.1-.8.2-1.1.4-2.2 2.2-4.4 1.5-6.7.1-2.4-1.5-4.8-1.9-7.7-.9-3.4 1.2-7 1.9-10.5 2.6-4 .9-7.7.3-10.9-2.5-4.3-3.7-8.6-7.4-12.9-11 1.6-.5 1.6-.5.3-2.7-.3 1.7-.4 2.4-.4 3.2" style="fill:url(#SVGID_2_)"/>
 <path d="m430 596c.5 0 1 .1 1.9.2-.4-.7-.5-1.2-.8-1.3-1.8-.8-2.5-2.2-2.3-4 0-.6.2-1.4-.1-1.9-1.9-3.3.7-5.1 2.3-7.3.3-.4 1.1-.5 1.6-.8 2.3-1.2 4.7-2.1 6.7-3.7 3.5-2.7 6.7-5.7 9.9-8.6 1.4-1.2 2.6-2.4 2.8-4.4.1-.6 1.1-1.7 1.6-1.7.7 0 1.3 1 1.9 1.6.2.2.2.5.2.7.6 4.3 1.1 8.7 1.7 13.2-.9.1-1.5.1-1.7.1-1.3 3-2.5 5.8-3.8 8.6-.3.6-.7 1.2-.8 1.8-.4 5.8-4 10.3-6 15.4-1.1 2.6-2.3 5.2-3.7 7.6-1.7 2.8-3.3 5.7-4.3 8.9-.6 1.9-1.9 3.3-4.1 3.7-1.5.3-2.9.8-4.4 1.3-.5-.3-.8-.4-1.1-.6-5.4-4.1-4.7-2.3-4.6-9.1 0-1-.1-2.1-.6-2.9-1.7-2.8-1-5.1.9-7.4 1.4-1.7 2.9-3.3 4.2-5 1.2-1.4 1.8-2.9 2.6-4.4" style="fill:url(#SVGID_3_)"/>
 <path d="m68 255c-1.3.1-2.2.8-3 1.5-1.1 1-2 2.2-3.4 2.8-.7.3-.5.9-.3 1.5.4 1.1-.1 1.8-.9 2.4-.3.2-.5.4-.9.2-.3-.2-.2-.5-.1-.9.5-1.9 1-3.8 1.4-5.8.1-.6.2-1.3-.1-1.9-.2-.4-.1-.7.3-.9.3-.2.6-.5.6-.9 0-1.2.8-1.2 1.6-1.1 1.8.2 2.6-.4 3-2.4-.8.4-1.4 1.2-2.2 1.4-.2.1-.5.1-.7-.1-.2-.2 0-.4.1-.6.2-.2.4-.5 0-.6-1.1-.4-.3-.8 0-1.2.5-.5 1-.7 1.7-.7.5 0 1 0 1.5-.6-1.2-.2-1.6-.8-1.1-2 .2-.4-.2-.8-.6-.8-.5 0-1 0-1.7 0 1.3.6 1.3.8.4 1.7-.9.9-1.8 1.9-3 2.5-1.1.6-3.1 1.2-4.2 1-.3 0-.6-.2-.9-.3-.1-.1-.2-.2-.2-.4 0-.3.2-.3.4-.3.6.1.9-.2 1.2-.6.3-.4.6-.3 1.1-.3 1.2.1 1.2.1 2.2-.3-1.2-.3-2.1-1-3.4-.3-.9.4-2 .2-3 .1-.2 0-.5-.1-.5-.4 0-.3.3-.4.5-.4.3-.1.6-.1.8 0 1.5.5 2.4-.5 3.3-1.4.5-.5.6-1.2-.3-1.5-.4-.2-.9-.3-.7-.9.2-.6.7-.5 1.2-.4.7.1 1.3.3 2 0 .2-.1.4-.1.3-.4 0-.1-.2-.2-.4-.2-.4-.1-.9-.1-1.3-.3-.4-.2-.7-.6-.4-1.1.3-.5.7-.2 1.1 0 .7.4 1.4.3 2.1 0 .2-.1.6-.2.5-.5-.1-.3-.4-.4-.7-.4-.6.1-1.1-.1-1.6-.4-.4-.2-.6-.5-.4-1 .2-.4.6-.5 1-.4.1 0 .2.1.3.1.3.1.8.4 1 0 .2-.4-.3-.6-.6-.8-.9-.6-1.3-1.1-.2-1.8.2-.2.4-.4.4-.7-.1-.4-.5-.2-.7-.2-1 .1-2-.3-2.9.4-.3.3-.7-.1-.8-.4-.3-.6-.7-1.3-.3-1.9.2-.5.7-.2 1 0 .2.1.5.2.7.2.7 0 1.8.3 2-.4.2-.8-1-.6-1.5-.9-.4-.2-.8-.3-1.1-.7-.2-.2-.3-.7-.1-.7 1-.3.9-1.5 1.7-1.8.1-.1.3-.2.3-.3.2-2.5 2.1-1.1 3.2-1.3.5-.1 1.2.4 1.8 0 .2-.1.5 0 .6.2.2.2.4.6.8.4.4-.3 0-.7-.1-1-.5-.9-1.1-1.5-2-2-.7-.4-1-.9-.4-1.7.4-.5.5-1.1.2-1.7-.4-.9.2-1.2.9-1.2.8-.1 1.6-.1 2.4.1.4.1.8 0 .8-.4 0-.4-.4-.4-.7-.5-.5 0-.9-.1-1.2-.4-.4-.5-.8-1.1.2-1.4 1.1-.4 1.1-1 .5-1.8-.7-.9 0-1.5.6-2 .7-.5 1.4-.3 1.7.6.1.3.2.7.7.7.6-.1.7.2.5.7-.2.7.2.7.6.4.6-.3 1-.9 1.5-1.4.3-.3.5-.7 1-.5.5.2.4.6.4 1 0 .3-.2.7.2.8.4.1.6-.2.8-.5.4-.5.9-.5 1.4-.7 2.6-1 5.4-.4 7.9-1.4.3-.1.6-.2.8-.2 1.6.3 3 .2 4.5-.5 1.2-.5 1.9.4 1.5 1.7-.1.4-.1.7 0 1.1.4 1.6.1 2.3-1.4 2.8-1.6.5-2.7 1.6-3.9 2.5-2.1 1.5-4 3.2-6.4 4.1-.2.1-.5.2-.5.5.2 1.2-.6 1-1.3 1-.6 0-1.3 0-1.9 0 .5.7 2.6 1.5 3.9 1.5.4 0 1-.3 1.1.3.1.7-.6.7-1 .8-1.7.4-3.4 1-4.7 2.2-.2.2-.7.5-.4.9.3.4.7 0 .9-.2.6-.4 1.2-1 2-1.1.3 0 .7-.1.8.3.2.4-.1.6-.3.8-.8.8-1.7.9-2.7 1.1-.3.1-.6 0-.7.4-.1.4.4.5.7.5 1.3.2 2.7 0 3.8-.8 1.6-1.2 3.4-1.7 5.3-1.9.8-.1 1.5-.3 2.1-.8 1.1-.8 2.3-1 3.6-.4 1.1.5 2.3.6 3.5.2 1.1-.4 2.3-.3 3.4 0 2.5.5 4.9 0 7.4 0 1.9 0 3.2 1.2 3.3 3 .1 1-.2 1.9-1.1 2.5-1.5.9-2.1 2.2-2.3 3.9-.1 1.1-.4 2-1.1 2.8-.2.2-.5.5-.4.7.1 2.4-1.9 3-3.3 4.1-.5.4-.9.7-.7 1.4.2.7-.1 1.2-.6 1.7-1.3 1.1-2.7 1.8-4.4 1.8-1 0-1.8.2-2.6.8-.8.7-1.7 1.1-3 .8.3 1.1 1 1.2 1.8 1 1.2-.4 2.3-.9 3.5-1.4.5-.2 1.1-.5.9.5-.1.5.3.7.7.8.3.1.5.2.8.4.5.3 1.3.3 1.1 1-.2.8-1 1-1.7.8-1.2-.3-2.3 0-3.1.9-2.7 2.8-5.8 2.5-9.1 1.2-.2-.1-.4-.3-.7-.1.3 1.1 1.4 2 2.5 2.1 2.2.3 4.4.4 6.6.9 1.2.3 2.3-.1 3.2-.9 1-.9 2-.9 3.1-.2 1.3.9 2.8 1.4 4.3 1.7 1.2.3 2 .9 2.6 1.9.9 1.6 2.1 2.8 3.7 3.7 1.4.8 1.8 1.9 1.9 3.6.2 2.6.8 5.1 2.2 7.4.5.8.9 1.7.9 2.7 0 .9.5 1.6 1.1 2.2.6.7 1.2 1.4 1 2.5-.1.6.3.6.7.4.6-.4 1.2-.2 1.8.1.7.3 1.5.5 2.3.8 2.3.6 3.9 2 5 4.2.6 1.2 1.4 2.2 2.6 2.9.6.3.7.7.5 1.3-.6 1.3-.3 2.6.5 3.7.7 1 1.5 1.9 2.2 2.9.2.3.6.7.3 1.1-.2.4-.7.4-1.1.4-.8 0-1.4-.5-1.9-1.1-.6-.8-1.3-1-2.2-.6-.9.4-1.8.4-2.7.1-.6-.2-1.2-.1-1.7.2-.3.2-.8.3-.4.8.2.3.5.6 1 .4 1.4-.7 2.9 0 4.3-.6.4-.2.8.2 1.1.6.9 1.2 2.1 1.9 3.4 2.7 2.3 1.3 3.3 3.6 4.1 6 .2.6-.1 1.2-.7 1.5-1.5.8-2.2 2.4-3.4 3.5-.4.4-.2.7.3.7.9 0 1.4.4 1.9 1 1.2 1.2 2.9.9 3.6-.6.7-1.5 1.7-2 3.3-1.8 2.3.2 4.6-.1 6.9.7 1.9.7 3.4 1.9 4.8 3.3 1.1 1.1 1.2 2.7.8 4.2-.9 3.1-2.6 5.9-4.8 8.4-.2.3-.6.6-.9.5-1.1-.3-1.4.8-2.2 1.1-.3.1-.3.4 0 .6.3.2.9.2.5.8-.3.5-.6 1.2-1.3 1-.9-.2-1.5.2-2 .8-.4.5-1 .8-1.6.9-.3.1-.6.1-.5.5.1.3.4.4.7.4.4 0 .8-.1 1.2-.1.4 0 .8.1.8.5.1.8-1.6 2.5-2.4 2.3-1.2-.3-2.1 0-3.1.6-.8.6-1.9.6-3.1.9 1 .7 1.9.6 2.8.3.6-.2 1.7-.9 1.1.7-.2.4.3.5.6.6 2.4.6 4.8 1.5 7.3.5.4-.2.9-.2 1.3-.2.4 0 1-.2 1.1.4.1.5 0 1.1-.4 1.4-2.4 1.3-4 3.4-5.5 5.6-.4.5-1 .8-1.6.9-2.1.5-4.1 1.3-5.9 2.4-.4.2-.8.3-1.2.2-.2 0-.4-.1-.6-.2-2.9-1.2-5.8-1.4-8.8-.7-1.4.3-2.7.3-4-.5-.9-.5-1.9-.3-2.9-.2-1 .2-2 .2-2.8-.6-.5-.5-1.2-.5-1.9-.4.6 1.9.4 2.3-1.6 2.9-1.1.3-2.2.2-3.3.2-.4 0-.9 0-1.3 0-.7 0-1.3 0-1.7.7-.3.7.6.7.8 1.3-1 .3-1.9 0-2.7-.4-1.9-.9-3.8-1.1-5.9-1.4-2.9-.4-5.5.3-8 1.3-.4.2-.8.1-1.1-.3-.2-.2-.3-.4-.6-.3-.3.1-.2.4-.2.6.1.8 0 1.4-.8 1.8-.4.2-.3.5-.2.8.2.9 0 1.5-1.1 1.4-.6-.1-.8.3-.4.7.4.6.8 1.2.2 1.7-.6.6-1.5.4-2.1.1-.8-.3-1.5-.6-2.3-.6-.2 0-.6 0-.7-.2-1-1.2-2.1-1-3.4-.7-1.5.3-3 .7-4.6.6-.7 0-1.2.5-1.5 1.1-.5.8-1.2 1.3-2.2.9-.8-.2-1.3.1-1.5.8-.2.6-.3 1.2-.9 1.6-.5.3 0 .5.3.7.6.4.4.7 0 1-.4.3-.9.4-1.1-.1-.4-.8-.9-1.5-1.8-1.8-.5-.2-.5-.6 0-.9 2.3-1.4 3.7-3.5 5-5.8.2-.3.4-.6.8-.6 1 .1 1.3-.4 1.6-1.3.3-1.1 1.2-1.8 2.1-2.4 1-.7 1.5-1.5 1.4-2.7 0-.5 0-1 .1-1.4.1-.8.6-1.1 1.4-1 1.8.3 3.4-.6 4.3-2.3.2-.4.6-.4.9-.4 1.3-.2 2.7-.4 3.9-1.1.8-.5 1.7-.2 2.4.1 2 .9 3.9.1 5.9 0 .8-.1 1-.8 1.1-1.5.3-1.8 1.2-3.1 3-3.7.4-.1.6-.3.8-.7.5-1.6 1.7-2.6 2.9-3.6.5-.4 1.2-.8 1.1-1.6 0-.1-.3-.3-.4-.4-.8-.1-1.1.6-1.4 1.1-1.1 1.3-2.2 2.4-3.7 3.2-.6.3-1.2.5-1.9.3-1-.3-1.6.4-2.1 1.1-.8 1.1-1.8 1.8-3.1 2-1.4.2-2.4-.2-3.1-1.5-.4-.7-.8-1.2-1.4-1.7-1.1-.9-2.3-1.2-3.7-.9-.5.1-1 .3-1.1-.6 0-.5-.7-.4-1.1-.5-1-.2-1.7-.4-2.1-1.5-.3-.8-1.1-.7-1.6-.4-1.1.8-2.7.7-3.5 2.1-.3.5-1.1.5-1.5-.1-.5-.7-1.1-.7-1.8-.8-1 0-1.5-.5-1.3-1.5.1-.6-.2-1-.7-1.3-.6-.4-.5-.7 0-1.1.8-.5 1.6-1.2 2.7-1 .6.1 1.1-.2 1.6-.5 1.7-1.4 3.8-2.2 5.8-3.2 1.8-.9 3.1-2.2 3.8-4.1.3-.8.5-1.6 1.2-2.2.3-.2.3-.5 0-.8-.8-.8-.8-1.6-.3-2.5.3-.5.2-.7-.3-.9-1.1-.5-1.4-1.3-.8-2.3.4-.7-.1-.8-.6-.9-2-.1-3.8.1-5.3 1.6-.3.3-.8.8-1.2.2-.4-.5 0-.9.4-1.2.4-.3.7-.5 1.1-.7 1.4-.7 2.3-1.7 3-3.1 1-2.1 3.2-2.4 5.2-2.7 1.8-.3 3.7-.7 5.5-1.2 1.2-.3 2 .1 2.9.7.5.4 1.1 1.2 1.7.7.7-.6 0-1.3-.4-1.9-.2-.4-.5-.7 0-1 .6-.4.9.1 1.2.5 1 1.4 1.8 1.8 3 1.4.4-.1 1-.3 1-.9-.1-.5-.6-.3-1-.4-1.9-.1-3-1.1-3.3-2.9-.2-1.4.7-2.8 2.2-3.5.3-.1.7 0 .6-.5-.1-.4-.5-.3-.8-.3-.5.1-1.1.2-1.5-.3-.4-.4-.5-.8-.1-1.3.2-.3.4-.6.7-.8 2.1-1.3 1.9-3.4 2.1-5.4.1-.8-.1-1.2-1-.7-.6.4-1.2.5-1.8 0-.6-.5-.7-.1-.9.4-.1.2-.1.5-.2.7-.2.3-.4.6-.8.5-.4-.1-.5-.5-.5-.9 0-.3.1-.6.1-.8 0-.5-.2-.8-.8-.6-1.1.5-1.8.1-1.8-1 0-.7-.3-1.2-.8-1.6-1.5-1.3-1.8-2.4-1-4.2.6-1.3 1.6-2.4 2-3.8.1-.2.3-.4.5-.5 1.3 0 2.2-1.2 3.4-1.3.3 0 .7-.2.7-.6 0-.5-.5-.5-.8-.5-1.8 0-3.5 0-5.3-.2-.8-.1-1.3.2-1.5 1-.2.6-.6.9-1.2.9-.9 0-1.6.4-2.1 1.1-.5.7-1 .8-1.7.2-.7-.6-1.8-.3-2.6-.6-.6-.2-1.2-.3-1.6-.7-.2-.2-.4-.5-.8-.3-.3.2-.3.6-.2.9.1.6.4 1.1.5 1.7.2 1-.1 1.1-1 .8-.5-.2-.9-.6-1.4-.9-1.2-1-2.4-2-4.1-1.8-.3 0-.5-.1-.6-.3-1-1.4-.8-3.5.3-4.7.5-.5 1-1.1 1.2-1.8.5-1.4 1.2-2.6 2.3-3.6.9-.9.4-3.1-.8-3.7-1.6-.9-2.4-3.1-1.8-4.7.3-.7.8-.8 1.5-.7.8.2 1.6.4 2.3.5.3 0 .7.2.8-.2.1-.4-.4-.5-.7-.5-.9-.2-1.6-.6-2.4-1.1-.9-.7-1.2-1.4-.6-2.5.2-.2.4-.6.1-.9-.3-.2-.5.1-.8.1-1 .2-1.5.5-1.4 1.7.1.9-.5 1.8-.3 2.8 0 .3-.2.5-.5.6-.3.1-.5-.2-.6-.5-1-1.8-1-1.8-2.4-.2-.2.2-.3.6-.6.4-.3-.1-.2-.5-.2-.7-.1-1.2.6-2 1.4-2.6 1.1-.8 2.1-1.6 3-2.6-.4.1-.4 0-.3-.3" style="fill:url(#SVGID_4_)"/>
 <path d="m58 292c-1.3-.1-1.7.1-2 1.5-.4 2-1.2 2.5-3.2 1.7-1.3-.5-2.5-.4-3.7 0-1.5.4-1.8.3-2.1-1.3-.1-.6-.4-.8-1-.9-1-.2-1.4-.8-1.7-1.6 0-.1 0-.2-.1-.2-.4-1-1.2-1.7-2.3-1.9-.6-.1-2.1 1.4-2.3 2.2-.7 2.4-3.2 3.2-5.5 2.2-2.1-.9-3.5-2.6-5.3-4-.9-.7-.8-1.1.2-1.6 1-.5 2.2-.6 3.2-1.3.4-.3.9-.5.8-1.1 0-.6-.6-.5-1-.6-.3-.1-.7-.2-.6-.6 0-.4.4-.4.8-.4 2.6.2 3.9-1.2 4.6-3.5.5-1.6 1.6-2.5 3.4-2.5.9 0 1.6-.4 2-1.2.4-.8 1-1.2 1.9-1.1.6.1 1.3 0 1.9-.3 2.1-1.1 4.3-1.1 6.5-.6.7.2 1.4.5 1.4 1.3-.1 1.9 1 3 2.1 4.3.5.5.9 1.1 1.4 1.7.5.6.4 1.2-.4 1.6-.1.1-.2.1-.3.2-.5.4-1.2.8-.9 1.5.3.7 1 .1 1.5 0 1-.2 2.1-.7 3 .3.3.3.6.6.3 1-.3.3-.6-.1-.8-.2-.4-.2-.8-.5-1.2-.1-.4.3-.3.8-.1 1.2.3.7.6 1.5.4 2.3 0 .3.1.5.3.6.4.1.9.2.7.8-.1.6-.6.8-1.1.9-.2-.2-.5-.3-.8-.3" style="fill:url(#SVGID_5_)"/>
 <path d="m23.7 285c-1 0-1.9 0-2.9 0-.6 0-1.1-.2-1.1-.9 0-.7.5-1 1.1-1 .4 0 .8.1 1.2.1.7 0 1.6.2 1.3-1-.1-.3.2-.4.4-.5 1.2-.3 1.1-1 .7-1.8-.4-.8-.6-1.5.5-2 .1-.1.3-.2.3-.4-.2-1.5.7-1.5 1.8-1.4.3 0 .7-.2 1-.3 2-.7 4 .2 4.7 2.2.5 1.4 1.2 1.6 2.2.4.9-1 .9-2.1.5-3.3-.4-1.3-.2-1.6 1.2-1.7.7 0 1.7.4 1.5-1.1-.1-.4.4-.2.6-.1.8.6 1.6 1.1 2.5 1.6.7.3.1.6-.2.9-1 .8-2.1 1.5-3.1 2.2-1 .7-1.5 1.6-1.9 2.7-.8 2.5-2.1 3.5-4.7 3.6-.6 0-1.3 0-1.5.7-.2.7.5.9.9 1.2.3.2.6.4.5.7-.1.4-.3.6-.7.7-1.1.2-2.1.4-3 1.1-.3.2-.7.1-1-.2-.3-.3-.2-.7 0-1 .1-.2.3-.3.4-.5.2-.3.5-.5.3-.9-.2-.4-.5-.3-.8-.3-.7.4-1.7.4-2.7.3" style="fill:url(#SVGID_6_)"/>
 <path d="m51.8 216c0 .6-.2 1.1-.6 1.5-1.1 1.3-2.3 2.7-3.4 4-.2.2-.6.5-.1.6 1.4.6.2.6-.1 1.1-.9 1.7-1.3 1.1-1.7-.2-.1-.2-.3-.3-.5-.2-.3.1-.5.3-.6.7-.1.4 0 1.1-.7 1.1-.8-.1-1.6-.3-2.2-.8-.2-.2-.2-.5.1-.6.9-.7.2-.8-.3-1.1-.4-.2-1.2-.3-.8-1.1.3-.6 1-.8 1.6-.3 1.1.9 1.9-.5 2.9-.4.3 0 .1-.5 0-.7-.5-1.4-.5-1.6.9-2.1 1.5-.6 2.8-1.5 4.2-2.3.8-.5 1.3-.2 1.3.8" style="fill:url(#SVGID_7_)"/>
 <path d="m53 232c0 .2 0 .4-.1.6-.9 1.8-.1 3 1.2 4.1.5.4.3.6-.1.8-.7.3-1.4.5-2.1.4-.6-.1-1.1-.4-1-1 .4-1.4-.7-1.9-1.5-2.5-.4-.3-.9-.5-1.3-.8-.3-.2-.5-.6-.2-.9.2-.3.5-.3.8-.1.2.1.4.3.6.4.5.2 1.2.4 1.6 0 .4-.3-.2-.8-.3-1.2 0-.7-.9-1.7.1-2.1.8-.4 1.3.7 1.8 1.2.6.1.6.6.5 1.1" style="fill:url(#SVGID_8_)"/>
 <path d="m75 312c-.8-.1-1.5-.4-2-1.2-.5-.9-.4-2.2.4-2.6.9-.5 1.8-.3 2.5.5.4.4.6 1 1.2 1.2 1.4.4.6.9 0 1.3-.6.5-1.2.8-2.1.8" style="fill:url(#SVGID_9_)"/>
 <path d="m61.7 264c-.9 2.4-1.1 5.1-2.8 7.2-.3.3-.6.9-1.2.5-.5-.3-.1-.8.1-1.2.6-1 .8-2.1.9-3.2.1-1.6.9-2.8 2.3-3.6.5-.3.7-.2.7.3" style="fill:url(#SVGID_10_)"/>
 <path d="m70.8 294c0-.5.2-.9.5-1.2.7-.7 1.3-1.4 1.9-2.2.3-.5.8-1 1.4-.6.6.4 1.1 1 .7 1.7-.7 1.4-1.6 2.6-3.1 3.2-.9.4-1.5 0-1.4-.9" style="fill:url(#SVGID_11_)"/>
 <path d="m94 342c.1 0 .3.1.4.2.2.2 0 .5-.1.6-.8.7-1.5 1.5-2.4 2.2-.5.4-.9.1-1.2-.3-.4-.6-.3-1.1.2-1.6.9-.7 1.9-.9 3.1-1.1" style="fill:url(#SVGID_12_)"/>
 <path d="m57.7 252c-.2.9-.5 1.6-1.5 1.5-.8-.1-1.9-.3-1.9-1.2-.1-.8.7-1.4 1.5-1.4.8 0 1.6.2 1.9 1.1" style="fill:url(#SVGID_13_)"/>
 <path d="m51 265c.1-.4-.1-.7-.3-1-.5-.6-.1-1.1.4-1.4.6-.3 1-.1 1.2.5.1.3.3.7.4 1 .5 1.2-.1 1.9-1.4 1.7-.4 0-.4 0-.3-.8" style="fill:url(#SVGID_14_)"/>
 <path d="m54.9 234c0-.2.1-.5.1-.8.1-.2.1-.5.4-.5.3 0 .4.2.5.5.3.9.6 1.8 1.3 2.5.2.2.1.5-.2.7-.5.2-1 .3-1.4-.2-.5-.6-.6-1.4-.7-2.2" style="fill:url(#SVGID_15_)"/>
</svg>
